<svg width="99" height="34" viewBox="0 0 99 34" fill="none" xmlns="http://www.w3.org/2000/svg">
<circle cx="24" cy="17" r="10" fill="#0151CF"/>
<path d="M19.4473 17.0001L22.6993 20.2521L29.2034 13.748" stroke="white" stroke-width="2" stroke-linecap="round" stroke-linejoin="round"/>
<path d="M42.1172 20.6113C43.2383 20.6113 44.0996 19.8252 44.0996 18.7998V18.2188L42.1992 18.335C41.2422 18.3965 40.6953 18.8203 40.6953 19.4902C40.6953 20.167 41.2627 20.6113 42.1172 20.6113ZM41.8506 21.623C40.4355 21.623 39.4854 20.7686 39.4854 19.4902C39.4854 18.2734 40.4219 17.5078 42.0625 17.4121L44.0996 17.2959V16.7012C44.0996 15.833 43.5254 15.3135 42.541 15.3135C41.625 15.3135 41.0508 15.7441 40.9004 16.4414H39.752C39.834 15.2109 40.8867 14.2676 42.5684 14.2676C44.2363 14.2676 45.2891 15.1699 45.2891 16.585V21.5H44.1611V20.2764H44.1338C43.71 21.0898 42.8076 21.623 41.8506 21.623ZM49.6914 20.5088C50.9287 20.5088 51.7559 19.4834 51.7559 17.918C51.7559 16.3525 50.9287 15.3135 49.6914 15.3135C48.4678 15.3135 47.668 16.3252 47.668 17.918C47.668 19.5107 48.4678 20.5088 49.6914 20.5088ZM49.7324 24.1797C48.167 24.1797 46.9297 23.2979 46.7314 22.0879H47.9551C48.1875 22.7373 48.8916 23.168 49.7803 23.168C51.0107 23.168 51.7559 22.457 51.7559 21.3975V20.2764H51.7285C51.291 21.0488 50.4502 21.5547 49.4521 21.5547C47.6406 21.5547 46.4512 20.126 46.4512 17.918C46.4512 15.6895 47.6406 14.2676 49.4795 14.2676C50.4844 14.2676 51.3184 14.7598 51.79 15.5869H51.8105V14.3906H52.9453V21.3564C52.9453 23.0518 51.6943 24.1797 49.7324 24.1797ZM57.3477 15.2998C56.2334 15.2998 55.4541 16.1543 55.3789 17.3369H59.2412C59.2139 16.1475 58.4688 15.2998 57.3477 15.2998ZM59.2139 19.4629H60.3828C60.1777 20.707 58.9746 21.623 57.4229 21.623C55.3857 21.623 54.1484 20.208 54.1484 17.9727C54.1484 15.7646 55.4062 14.2676 57.3682 14.2676C59.2891 14.2676 60.4717 15.6621 60.4717 17.8154V18.2666H55.3721V18.335C55.3721 19.6953 56.1719 20.5908 57.4502 20.5908C58.3525 20.5908 59.0156 20.1328 59.2139 19.4629ZM61.6748 21.5V14.3906H62.7959V15.5254H62.8232C63.2197 14.7598 63.9785 14.2676 65.0791 14.2676C66.6377 14.2676 67.54 15.2725 67.54 16.8857V21.5H66.3506V17.0977C66.3506 15.9492 65.8105 15.3203 64.7168 15.3203C63.5957 15.3203 62.8643 16.1133 62.8643 17.3164V21.5H61.6748ZM71.751 21.623C69.9395 21.623 68.709 20.1738 68.709 17.9453C68.709 15.7168 69.9326 14.2676 71.7236 14.2676C72.7422 14.2676 73.5625 14.7666 73.9863 15.5459H74.0137V11.6357H75.2031V21.5H74.0684V20.2969H74.0479C73.5898 21.1172 72.7764 21.623 71.751 21.623ZM71.9766 15.3135C70.7188 15.3135 69.9258 16.3389 69.9258 17.9453C69.9258 19.5586 70.7188 20.5771 71.9766 20.5771C73.2002 20.5771 74.0205 19.5381 74.0205 17.9453C74.0205 16.3594 73.2002 15.3135 71.9766 15.3135ZM79.1543 20.6113C80.2754 20.6113 81.1367 19.8252 81.1367 18.7998V18.2188L79.2363 18.335C78.2793 18.3965 77.7324 18.8203 77.7324 19.4902C77.7324 20.167 78.2998 20.6113 79.1543 20.6113ZM78.8877 21.623C77.4727 21.623 76.5225 20.7686 76.5225 19.4902C76.5225 18.2734 77.459 17.5078 79.0996 17.4121L81.1367 17.2959V16.7012C81.1367 15.833 80.5625 15.3135 79.5781 15.3135C78.6621 15.3135 78.0879 15.7441 77.9375 16.4414H76.7891C76.8711 15.2109 77.9238 14.2676 79.6055 14.2676C81.2734 14.2676 82.3262 15.1699 82.3262 16.585V21.5H81.1982V20.2764H81.1709C80.7471 21.0898 79.8447 21.623 78.8877 21.623Z" fill="black"/>
</svg>
