<svg width="24" height="24" viewBox="0 0 24 24" fill="none" xmlns="http://www.w3.org/2000/svg">
<g clip-path="url(#clip0_18_33)">
<path d="M21.8557 5.12825C21.8557 5.15104 21.8557 5.17382 21.8557 5.19585C21.8322 8.00609 19.5331 10.2573 16.7267 10.2573H12.1642C13.7212 8.99651 14.5028 7.09466 14.5028 5.12825C14.5028 3.16184 13.7554 1.35113 12.1642 -6.48499e-05H16.7289C19.5354 -6.48499e-05 21.8345 2.25497 21.8557 5.06065C21.8557 5.08344 21.8557 5.10622 21.8557 5.12825Z" fill="white"/>
<path d="M11.1946 5.12832V5.19591C11.1703 8.00616 8.87119 10.2574 6.06475 10.2574H1.5C2.75125 8.84211 3.44055 7.0174 3.43755 5.12832C3.44058 3.23945 2.75126 1.41497 1.5 0L6.06475 0C8.87119 0 11.1703 2.25503 11.1946 5.06072V5.12832Z" fill="white"/>
<path d="M21.8557 18.5741C21.8557 18.5961 21.8557 18.6189 21.8557 18.6417C21.8322 21.4474 19.5331 23.7024 16.7267 23.7024H12.1642C13.7212 22.4416 14.5028 20.5397 14.5028 18.5741C14.5028 16.6084 13.7554 14.7962 12.1642 13.4435H16.7289C19.5354 13.4435 21.8345 15.6985 21.858 18.505C21.8557 18.5323 21.8557 18.5513 21.8557 18.5741Z" fill="white"/>
<path d="M11.1946 18.5741V18.6417C11.1703 21.4474 8.87119 23.7024 6.06475 23.7024H1.5C2.75114 22.2874 3.44044 20.4629 3.43755 18.5741C3.44092 16.6845 2.7516 14.8592 1.5 13.4435H6.06475C8.87119 13.4435 11.1703 15.6985 11.1946 18.505V18.5741Z" fill="white"/>
</g>
<defs>
<clipPath id="clip0_18_33">
<rect width="24" height="24" fill="white"/>
</clipPath>
</defs>
</svg>
