<svg width="24" height="24" viewBox="0 0 24 24" fill="none" xmlns="http://www.w3.org/2000/svg">
<path fill-rule="evenodd" clip-rule="evenodd" d="M0 0.5C0 0.223858 0.223858 0 0.5 0H23.5C23.7761 0 24 0.223858 24 0.5V3.36C24 3.79545 23.4735 4.01352 23.1656 3.70561V3.70561C22.9747 3.51474 22.6653 3.51474 22.4744 3.70561L18.02 8.16L13.22 12.96L8.77355 17.4064C8.57829 17.6017 8.2617 17.6017 8.06644 17.4064L3.62001 12.96L1.52562 10.8656C1.33474 10.6747 1.02527 10.6747 0.834391 10.8656V10.8656C0.526478 11.1735 0 10.9554 0 10.52V0.5ZM3.62001 22.56L4.20645 23.1464C4.52143 23.4614 4.29835 24 3.8529 24H0.5C0.223857 24 0 23.7761 0 23.5V20.1471C0 19.7016 0.53857 19.4786 0.853553 19.7935L3.62001 22.56ZM13.22 22.56L18.02 17.76L22.82 12.96L23.1464 12.6336C23.4614 12.3186 24 12.5417 24 12.9871V23.5C24 23.7761 23.7761 24 23.5 24H12.9871C12.5416 24 12.3186 23.4614 12.6335 23.1464L13.22 22.56Z" fill="white"/>
</svg>
